<?xml version="1.0" encoding="UTF-8" standalone="no"?>
<!-- Created with Inkscape (http://www.inkscape.org/) -->

<svg
   width="65.299171mm"
   height="10.689166mm"
   viewBox="0 0 65.299171 10.689166"
   version="1.1"
   id="svg5"
   xmlns="http://www.w3.org/2000/svg"
   xmlns:svg="http://www.w3.org/2000/svg">
  <defs
     id="defs2">
    <rect
       x="96.141731"
       y="253.34647"
       width="471.61417"
       height="135.1181"
       id="rect63" />
  </defs>
  <g
     id="layer1"
     transform="translate(-26.517223,-68.248133)">
    <g
       aria-label="KUSS_WebMap
"
       transform="scale(0.26458333)"
       id="text61"
       style="font-size:40px;font-family:'Brandon Grotesque';-inkscape-font-specification:'Brandon Grotesque';white-space:pre;shape-inside:url(#rect63);opacity:0.781609;fill:#0066ff;stroke:#000000">
      <path
         d="m 100.22258,285.3857 v -26.08 q 0,-0.4 0.28,-0.68 0.28,-0.28 0.68,-0.28 h 1.16 q 0.4,0 0.68,0.28 0.28,0.28 0.28,0.68 v 11.32 l 12.48,-11.88 q 0.32,-0.4 0.76,-0.4 h 1.96 q 0.56,0 0.72,0.48 0.2,0.48 -0.24,0.92 l -12.64,11.8 13.24,13.56 q 0.28,0.2 0.08,0.72 -0.16,0.52 -0.76,0.52 h -2.04 q -0.52,0 -0.72,-0.28 l -12.84,-13.4 v 12.72 q 0,0.4 -0.28,0.68 -0.28,0.28 -0.68,0.28 h -1.16 q -0.4,0 -0.68,-0.28 -0.28,-0.28 -0.28,-0.68 z"
         style="stroke:none"
         id="path237" />
      <path
         d="m 124.06256,276.0257 v -16.92 q 0,-0.28 0.2,-0.52 0.24,-0.24 0.56,-0.24 h 1.52 q 0.32,0 0.52,0.24 0.24,0.2 0.24,0.52 v 16.68 q 0,3.52 2.04,5.84 2.04,2.28 5.48,2.28 3.48,0 5.52,-2.28 2.08,-2.28 2.08,-5.76 v -16.76 q 0,-0.32 0.2,-0.52 0.24,-0.24 0.56,-0.24 h 1.52 q 0.32,0 0.52,0.24 0.24,0.24 0.24,0.52 v 16.92 q 0,4.6 -3,7.68 -2.96,3.04 -7.64,3.04 -4.64,0 -7.6,-3.04 -2.96,-3.08 -2.96,-7.68 z"
         style="stroke:none"
         id="path239" />
      <path
         d="m 151.50254,283.5057 q -0.72,-0.6 -0.24,-1.36 0.12,-0.12 0.32,-0.36 0.2,-0.28 0.28,-0.4 0.72,-0.96 1.4,-0.36 3.56,3.04 6.76,3.04 2.36,0 3.84,-1.28 1.52,-1.28 1.52,-3.12 0,-1.96 -1.68,-3.36 -1.64,-1.44 -5.32,-2.96 -3.68,-1.6 -5.36,-3.32 -1.68,-1.76 -1.68,-4.96 0,-1.12 0.44,-2.28 0.48,-1.16 1.4,-2.28 0.96,-1.12 2.68,-1.84 1.76,-0.72 4,-0.72 1.76,0 3.44,0.52 1.72,0.52 2.56,1 l 0.84,0.52 q 0.28,0.12 0.4,0.44 0.12,0.32 -0.16,0.92 -0.08,0.12 -0.24,0.4 -0.16,0.24 -0.24,0.36 -0.56,0.84 -1.4,0.36 -3.24,-1.84 -5.24,-1.84 -2.84,0 -4.2,1.4 -1.32,1.4 -1.32,3 0,1.92 1.32,3.24 1.36,1.28 4.08,2.4 4.6,1.88 6.72,3.76 2.16,1.88 2.16,5.12 0,3.08 -2.56,5.16 -2.52,2.04 -6.08,2.04 -2.12,0 -4.2,-0.76 -2.04,-0.8 -2.88,-1.36 -0.8,-0.6 -1.36,-1.12 z"
         style="stroke:none"
         id="path241" />
      <path
         d="m 172.82258,283.5057 q -0.72,-0.6 -0.24,-1.36 0.12,-0.12 0.32,-0.36 0.2,-0.28 0.28,-0.4 0.72,-0.96 1.4,-0.36 3.56,3.04 6.76,3.04 2.36,0 3.84,-1.28 1.52,-1.28 1.52,-3.12 0,-1.96 -1.68,-3.36 -1.64,-1.44 -5.32,-2.96 -3.68,-1.6 -5.36,-3.32 -1.68,-1.76 -1.68,-4.96 0,-1.12 0.44,-2.28 0.48,-1.16 1.4,-2.28 0.96,-1.12 2.68,-1.84 1.76,-0.72 4,-0.72 1.76,0 3.44,0.52 1.72,0.52 2.56,1 l 0.84,0.52 q 0.28,0.12 0.4,0.44 0.12,0.32 -0.16,0.92 -0.08,0.12 -0.24,0.4 -0.16,0.24 -0.24,0.36 -0.56,0.84 -1.4,0.36 -3.24,-1.84 -5.24,-1.84 -2.84,0 -4.2,1.4 -1.32,1.4 -1.32,3 0,1.92 1.32,3.24 1.36,1.28 4.08,2.4 4.6,1.88 6.72,3.76 2.16,1.88 2.16,5.12 0,3.08 -2.56,5.16 -2.52,2.04 -6.08,2.04 -2.12,0 -4.2,-0.76 -2.04,-0.8 -2.88,-1.36 -0.8,-0.6 -1.36,-1.12 z"
         style="stroke:none"
         id="path243" />
      <path
         d="m 192.62262,287.5057 q 0,-0.76 0.76,-0.76 h 11.96 q 0.76,0 0.76,0.76 v 0.64 q 0,0.32 -0.24,0.52 -0.2,0.2 -0.52,0.2 h -11.96 q -0.32,0 -0.56,-0.2 -0.2,-0.2 -0.2,-0.52 z"
         style="stroke:none"
         id="path245" />
      <path
         d="m 216.14258,286.1857 -7.56,-26.88 q -0.12,-0.4 0.08,-0.68 0.2,-0.28 0.64,-0.28 h 1.68 q 0.56,0 0.72,0.56 l 5.56,20.72 h 0.16 l 6.68,-21.24 q 0.16,-0.44 0.68,-0.44 h 0.72 q 0.52,0 0.68,0.44 l 6.8,21.24 h 0.16 l 5.44,-20.72 q 0.16,-0.56 0.72,-0.56 h 1.68 q 0.44,0 0.64,0.28 0.2,0.28 0.08,0.68 l -7.56,26.88 q -0.16,0.56 -0.72,0.56 h -0.64 q -0.48,0 -0.68,-0.44 l -6.92,-21.64 h -0.2 l -6.8,21.64 q -0.2,0.44 -0.68,0.44 h -0.64 q -0.56,0 -0.72,-0.56 z"
         style="stroke:none"
         id="path247" />
      <path
         d="m 242.82258,278.3457 q 0,-3.52 2.16,-5.96 2.16,-2.44 5.68,-2.44 3.16,0 5.2,2.08 2.04,2.08 2.04,5.24 0,0.52 -0.08,1.08 -0.08,0.68 -0.72,0.68 h -11.52 q 0.12,2.04 1.68,3.64 1.6,1.56 3.68,1.56 2,0 3.96,-1.2 0.52,-0.28 0.64,-0.32 0.12,-0.04 0.48,0.24 0.12,0.16 0.32,0.48 0.24,0.28 0.36,0.44 0.24,0.32 0.24,0.52 0,0.2 -0.4,0.52 -2.32,1.84 -5.88,1.84 -3.52,0 -5.68,-2.4 -2.16,-2.44 -2.16,-6 z m 2.8,-1.56 h 9.52 q -0.08,-1.76 -1.4,-3.08 -1.28,-1.32 -3.08,-1.32 -2,0 -3.44,1.28 -1.4,1.24 -1.6,3.12 z"
         style="stroke:none"
         id="path249" />
      <path
         d="m 262.30261,285.5857 v -26.48 q 0,-0.28 0.24,-0.52 0.24,-0.24 0.52,-0.24 h 1.24 q 0.32,0 0.52,0.24 0.24,0.24 0.24,0.52 v 11.88 q 1.64,-1.04 4.28,-1.04 3.52,0 5.6,2.4 2.08,2.36 2.08,5.96 0,3.48 -2.12,5.96 -2.12,2.48 -5.16,2.48 -1.32,0 -2.56,-0.52 -1.24,-0.52 -1.8,-1.08 l -0.56,-0.52 -0.24,1.08 q -0.16,0.64 -0.68,0.64 h -0.84 q -0.28,0 -0.52,-0.24 -0.24,-0.24 -0.24,-0.52 z m 2.8,-4 q 0.16,0.28 0.48,0.72 0.32,0.44 1.44,1.2 1.16,0.72 2.44,0.72 2.12,0 3.44,-1.72 1.32,-1.72 1.32,-4.16 0,-2.52 -1.36,-4.12 -1.36,-1.6 -3.88,-1.6 -0.96,0 -1.96,0.24 -0.96,0.24 -1.44,0.48 l -0.48,0.24 z"
         style="stroke:none"
         id="path251" />
      <path
         d="m 280.46264,285.3857 5.16,-26.88 q 0.12,-0.56 0.72,-0.56 h 0.64 q 0.52,0 0.68,0.44 l 7.92,22.04 h 0.2 l 7.8,-22.04 q 0.16,-0.44 0.68,-0.44 h 0.64 q 0.6,0 0.72,0.56 l 5.16,26.88 q 0.2,0.96 -0.72,0.96 h -1.6 q -0.56,0 -0.72,-0.56 l -3.56,-20.6 h -0.16 l -7.36,21.12 q -0.16,0.44 -0.68,0.44 h -0.72 q -0.52,0 -0.68,-0.44 l -7.44,-21.12 h -0.16 l -3.48,20.6 q -0.04,0.2 -0.28,0.4 -0.2,0.16 -0.44,0.16 h -1.6 q -0.92,0 -0.72,-0.96 z"
         style="stroke:none"
         id="path253" />
      <path
         d="m 315.7026,285.3057 q -1.4,-1.44 -1.4,-3.8 0,-2.36 1.68,-3.84 1.72,-1.48 4.72,-1.48 0.76,0 1.6,0.12 0.88,0.12 1.36,0.28 l 0.44,0.12 q 0.04,-2.4 -0.48,-3.36 -0.48,-0.96 -2.12,-0.96 -2.52,0 -4.8,0.88 -0.56,0.24 -0.76,-0.4 l -0.32,-1 q -0.2,-0.6 0.44,-0.88 0.24,-0.12 0.84,-0.32 0.64,-0.2 2,-0.44 1.36,-0.28 2.72,-0.28 2.96,0 4,1.56 1.08,1.52 1.08,5.2 v 8.88 q 0,0.28 -0.24,0.52 -0.24,0.24 -0.52,0.24 h -0.76 q -0.48,0 -0.68,-0.6 l -0.32,-1.08 q -2.08,2.08 -4.96,2.08 -2.12,0 -3.52,-1.44 z m 1.16,-3.8 q 0,1.24 0.76,2.04 0.76,0.8 2.04,0.8 1.4,0 2.6,-0.68 1.2,-0.72 1.8,-1.56 v -3.16 q -1.08,-0.64 -3.36,-0.64 -1.72,0 -2.8,0.84 -1.04,0.84 -1.04,2.36 z"
         style="stroke:none"
         id="path255" />
      <path
         d="m 335.06261,285.4257 v 12.16 q 0,0.28 -0.24,0.52 -0.2,0.24 -0.52,0.24 h -1.24 q -0.28,0 -0.52,-0.24 -0.24,-0.24 -0.24,-0.52 v -26.48 q 0,-0.28 0.24,-0.52 0.24,-0.24 0.52,-0.24 h 0.84 q 0.44,0 0.64,0.52 l 0.28,0.76 q 0.2,-0.2 0.56,-0.48 0.4,-0.28 1.6,-0.72 1.2,-0.48 2.48,-0.48 3.24,0 5.4,2.48 2.16,2.48 2.16,5.96 0,3.52 -2.2,5.96 -2.2,2.4 -5.48,2.4 -1.16,0 -2.24,-0.32 -1.08,-0.32 -1.56,-0.64 z m 0.04,-2.76 q 1.68,1.4 3.88,1.4 2.28,0 3.76,-1.64 1.48,-1.64 1.48,-4.08 0,-2.44 -1.36,-4.16 -1.36,-1.72 -3.68,-1.72 -1.16,0 -2.2,0.52 -1,0.48 -1.44,0.96 l -0.44,0.48 z"
         style="stroke:none"
         id="path257" />
    </g>
  </g>
</svg>
